<svg xmlns="http://www.w3.org/2000/svg" viewBox="0 0 332 88" width="332" height="88">
  <defs>
    <linearGradient id="iconBg" x1="0%" y1="0%" x2="100%" y2="100%">
      <stop offset="0%" stop-color="#C02020"/>
      <stop offset="100%" stop-color="#8B0000"/>
    </linearGradient>
    <linearGradient id="iconShine" x1="0%" y1="0%" x2="0%" y2="100%">
      <stop offset="0%" stop-color="rgba(255,255,255,0.15)"/>
      <stop offset="100%" stop-color="rgba(255,255,255,0)"/>
    </linearGradient>
  </defs>

  <g transform="translate(2, 4) scale(0.8696)">
    <rect width="92" height="92" rx="22" fill="url(#iconBg)"/>
    <rect width="92" height="46" rx="22" fill="url(#iconShine)"/>
    <rect x="20" y="22" width="14" height="14" rx="4" fill="white"/>
    <polyline points="23.5,29 27,32.5 33,25" fill="none" stroke="#8B0000" stroke-width="2.8" stroke-linecap="round" stroke-linejoin="round"/>
    <rect x="40" y="27" width="32" height="3.5" rx="1.75" fill="white" opacity="0.5"/>
    <rect x="20" y="42" width="14" height="14" rx="4" fill="white"/>
    <polyline points="23.5,49 27,52.5 33,45" fill="none" stroke="#8B0000" stroke-width="2.8" stroke-linecap="round" stroke-linejoin="round"/>
    <rect x="40" y="47" width="26" height="3.5" rx="1.75" fill="white" opacity="0.5"/>
    <rect x="20" y="62" width="14" height="14" rx="4" fill="none" stroke="white" stroke-width="2.3"/>
    <rect x="40" y="67" width="30" height="3.5" rx="1.75" fill="white" opacity="0.9"/>
    <circle cx="75" cy="69" r="3" fill="#FF6B6B" opacity="0.9"/>
  </g>

  <!-- "Taft" -->
  <g fill="#e8eaf0">
    <path d="M1188 1457V1189H778V0H440V1189H30V1457Z" transform="translate(96.0,58.0) scale(0.026000,-0.026000)"/>    <path d="M800 0Q756 0 733.5 12.0Q711 24 696 62L674 119Q635 86 599.0 61.0Q563 36 524.5 18.5Q486 1 442.5 -7.5Q399 -16 346 -16Q275 -16 217.0 2.5Q159 21 118.5 57.0Q78 93 56.0 146.5Q34 200 34 270Q34 325 62.0 383.0Q90 441 159.0 488.5Q228 536 345.0 568.0Q462 600 640 604V648Q640 739 602.5 779.5Q565 820 496 820Q441 820 406.0 808.0Q371 796 343.5 781.0Q316 766 290.0 754.0Q264 742 228 742Q196 742 174.0 758.0Q152 774 138 796L82 893Q176 976 290.5 1016.5Q405 1057 536 1057Q630 1057 705.5 1026.5Q781 996 833.5 941.5Q886 887 914.0 812.0Q942 737 942 648V0ZM444 189Q504 189 549.0 210.0Q594 231 640 278V422Q547 418 487.0 406.0Q427 394 392.0 376.0Q357 358 343.5 335.0Q330 312 330 285Q330 232 359.0 210.5Q388 189 444 189Z" transform="translate(122.1,58.0) scale(0.026000,-0.026000)"/>    <path d="M182 0V824L114 838Q79 846 57.5 863.0Q36 880 36 913V1035H182V1094Q182 1183 210.5 1255.0Q239 1327 292.5 1378.0Q346 1429 423.0 1457.0Q500 1485 598 1485Q636 1485 668.0 1480.5Q700 1476 735 1466L729 1315Q728 1299 721.0 1288.5Q714 1278 702.5 1271.5Q691 1265 678.0 1262.0Q665 1259 652 1259Q611 1259 579.0 1251.0Q547 1243 525.5 1222.5Q504 1202 493.0 1168.5Q482 1135 482 1084V1035H725V823H492V0Z" transform="translate(148.5,58.0) scale(0.026000,-0.026000)"/>    <path d="M476 -16Q402 -16 345.5 5.5Q289 27 250.5 66.5Q212 106 192.0 162.0Q172 218 172 287V823H84Q60 823 43.0 838.5Q26 854 26 884V1005L191 1037L252 1290Q264 1338 320 1338H482V1035H739V823H482V308Q482 272 499.5 248.5Q517 225 550 225Q567 225 578.5 228.5Q590 232 598.5 236.5Q607 241 614.5 244.5Q622 248 632 248Q646 248 654.5 241.5Q663 235 672 221L766 74Q706 29 631.0 6.5Q556 -16 476 -16Z" transform="translate(167.5,58.0) scale(0.026000,-0.026000)"/>
  </g>

  <!-- "Tasks" -->
  <g fill="#C02020">
    <path d="M1188 1457V1189H778V0H440V1189H30V1457Z" transform="translate(191.6,58.0) scale(0.026000,-0.026000)"/>    <path d="M800 0Q756 0 733.5 12.0Q711 24 696 62L674 119Q635 86 599.0 61.0Q563 36 524.5 18.5Q486 1 442.5 -7.5Q399 -16 346 -16Q275 -16 217.0 2.5Q159 21 118.5 57.0Q78 93 56.0 146.5Q34 200 34 270Q34 325 62.0 383.0Q90 441 159.0 488.5Q228 536 345.0 568.0Q462 600 640 604V648Q640 739 602.5 779.5Q565 820 496 820Q441 820 406.0 808.0Q371 796 343.5 781.0Q316 766 290.0 754.0Q264 742 228 742Q196 742 174.0 758.0Q152 774 138 796L82 893Q176 976 290.5 1016.5Q405 1057 536 1057Q630 1057 705.5 1026.5Q781 996 833.5 941.5Q886 887 914.0 812.0Q942 737 942 648V0ZM444 189Q504 189 549.0 210.0Q594 231 640 278V422Q547 418 487.0 406.0Q427 394 392.0 376.0Q357 358 343.5 335.0Q330 312 330 285Q330 232 359.0 210.5Q388 189 444 189Z" transform="translate(217.7,58.0) scale(0.026000,-0.026000)"/>    <path d="M764 810Q752 791 738.5 783.0Q725 775 704 775Q682 775 660.0 784.5Q638 794 612.5 805.0Q587 816 555.0 825.5Q523 835 482 835Q423 835 391.5 812.5Q360 790 360 750Q360 721 380.5 702.0Q401 683 435.0 668.5Q469 654 512.0 641.0Q555 628 600.0 612.0Q645 596 688.0 574.5Q731 553 765.0 521.5Q799 490 819.5 445.0Q840 400 840 337Q840 260 812.0 195.0Q784 130 728.5 83.0Q673 36 591.5 10.0Q510 -16 404 -16Q351 -16 298.0 -6.0Q245 4 195.5 21.0Q146 38 104.0 61.5Q62 85 32 112L104 226Q116 246 134.5 257.5Q153 269 182 269Q209 269 230.5 257.0Q252 245 277.0 231.0Q302 217 335.5 205.0Q369 193 420 193Q456 193 481.0 200.5Q506 208 521.0 221.0Q536 234 543.0 250.0Q550 266 550 283Q550 314 529.0 334.0Q508 354 474.0 368.5Q440 383 396.5 395.5Q353 408 308.0 424.0Q263 440 219.5 462.5Q176 485 142.0 519.5Q108 554 87.0 604.0Q66 654 66 725Q66 791 91.5 850.5Q117 910 168.0 955.0Q219 1000 296.0 1026.5Q373 1053 476 1053Q532 1053 584.5 1043.0Q637 1033 683.0 1015.0Q729 997 767.0 972.5Q805 948 834 919Z" transform="translate(244.6,58.0) scale(0.026000,-0.026000)"/>    <path d="M415 1497V658H461Q490 658 505.0 666.5Q520 675 535 695L731 987Q749 1012 772.0 1024.5Q795 1037 831 1037H1115L847 668Q809 618 757 586Q780 569 799.0 546.5Q818 524 835 496L1127 0H847Q812 0 787.0 11.5Q762 23 745 52L549 419Q535 444 520.0 451.5Q505 459 475 459H415V0H105V1497Z" transform="translate(267.8,58.0) scale(0.026000,-0.026000)"/>    <path d="M764 810Q752 791 738.5 783.0Q725 775 704 775Q682 775 660.0 784.5Q638 794 612.5 805.0Q587 816 555.0 825.5Q523 835 482 835Q423 835 391.5 812.5Q360 790 360 750Q360 721 380.5 702.0Q401 683 435.0 668.5Q469 654 512.0 641.0Q555 628 600.0 612.0Q645 596 688.0 574.5Q731 553 765.0 521.5Q799 490 819.5 445.0Q840 400 840 337Q840 260 812.0 195.0Q784 130 728.5 83.0Q673 36 591.5 10.0Q510 -16 404 -16Q351 -16 298.0 -6.0Q245 4 195.5 21.0Q146 38 104.0 61.5Q62 85 32 112L104 226Q116 246 134.5 257.5Q153 269 182 269Q209 269 230.5 257.0Q252 245 277.0 231.0Q302 217 335.5 205.0Q369 193 420 193Q456 193 481.0 200.5Q506 208 521.0 221.0Q536 234 543.0 250.0Q550 266 550 283Q550 314 529.0 334.0Q508 354 474.0 368.5Q440 383 396.5 395.5Q353 408 308.0 424.0Q263 440 219.5 462.5Q176 485 142.0 519.5Q108 554 87.0 604.0Q66 654 66 725Q66 791 91.5 850.5Q117 910 168.0 955.0Q219 1000 296.0 1026.5Q373 1053 476 1053Q532 1053 584.5 1043.0Q637 1033 683.0 1015.0Q729 997 767.0 972.5Q805 948 834 919Z" transform="translate(296.9,58.0) scale(0.026000,-0.026000)"/>
  </g>

  <!-- "ASSIGNMENT DASHBOARD" tagline -->
  <g fill="#6b7280">
    <path d="M499 124H237L195 0H16L270 702H468L722 0H541ZM455 256 368 513 282 256Z" transform="translate(97.0,76.0) scale(0.011000,-0.011000)"/>    <path d="M42 210H224Q228 171 251.0 150.5Q274 130 311 130Q349 130 371.0 147.5Q393 165 393 196Q393 222 375.5 239.0Q358 256 332.5 267.0Q307 278 260 292Q192 313 149.0 334.0Q106 355 75.0 396.0Q44 437 44 503Q44 601 115.0 656.5Q186 712 300 712Q416 712 487.0 656.5Q558 601 563 502H378Q376 536 353.0 555.5Q330 575 294 575Q263 575 244.0 558.5Q225 542 225 511Q225 477 257.0 458.0Q289 439 357 417Q425 394 467.5 373.0Q510 352 541.0 312.0Q572 272 572 209Q572 149 541.5 100.0Q511 51 453.0 22.0Q395 -7 316 -7Q239 -7 178.0 18.0Q117 43 80.5 92.0Q44 141 42 210Z" transform="translate(105.1,76.0) scale(0.011000,-0.011000)"/>    <path d="M42 210H224Q228 171 251.0 150.5Q274 130 311 130Q349 130 371.0 147.5Q393 165 393 196Q393 222 375.5 239.0Q358 256 332.5 267.0Q307 278 260 292Q192 313 149.0 334.0Q106 355 75.0 396.0Q44 437 44 503Q44 601 115.0 656.5Q186 712 300 712Q416 712 487.0 656.5Q558 601 563 502H378Q376 536 353.0 555.5Q330 575 294 575Q263 575 244.0 558.5Q225 542 225 511Q225 477 257.0 458.0Q289 439 357 417Q425 394 467.5 373.0Q510 352 541.0 312.0Q572 272 572 209Q572 149 541.5 100.0Q511 51 453.0 22.0Q395 -7 316 -7Q239 -7 178.0 18.0Q117 43 80.5 92.0Q44 141 42 210Z" transform="translate(111.9,76.0) scale(0.011000,-0.011000)"/>    <path d="M233 702V0H62V702Z" transform="translate(118.6,76.0) scale(0.011000,-0.011000)"/>    <path d="M528 480Q509 515 473.5 533.5Q438 552 390 552Q307 552 257.0 497.5Q207 443 207 352Q207 255 259.5 200.5Q312 146 404 146Q467 146 510.5 178.0Q554 210 574 270H357V396H729V237Q710 173 664.5 118.0Q619 63 549.0 29.0Q479 -5 391 -5Q287 -5 205.5 40.5Q124 86 78.5 167.0Q33 248 33 352Q33 456 78.5 537.5Q124 619 205.0 664.5Q286 710 390 710Q516 710 602.5 649.0Q689 588 717 480Z" transform="translate(121.9,76.0) scale(0.011000,-0.011000)"/>    <path d="M690 0H519L233 433V0H62V702H233L519 267V702H690Z" transform="translate(130.3,76.0) scale(0.011000,-0.011000)"/>    <path d="M857 702V0H686V421L529 0H391L233 422V0H62V702H264L461 216L656 702Z" transform="translate(138.5,76.0) scale(0.011000,-0.011000)"/>    <path d="M233 565V423H462V291H233V137H492V0H62V702H492V565Z" transform="translate(148.6,76.0) scale(0.011000,-0.011000)"/>    <path d="M690 0H519L233 433V0H62V702H233L519 267V702H690Z" transform="translate(154.6,76.0) scale(0.011000,-0.011000)"/>    <path d="M567 702V565H381V0H210V565H24V702Z" transform="translate(162.9,76.0) scale(0.011000,-0.011000)"/>    <path d="M693 351Q693 248 647.5 168.0Q602 88 518.5 44.0Q435 0 325 0H62V702H325Q436 702 519.0 658.0Q602 614 647.5 534.5Q693 455 693 351ZM519 351Q519 448 465.0 502.0Q411 556 314 556H233V148H314Q411 148 465.0 201.0Q519 254 519 351Z" transform="translate(171.7,76.0) scale(0.011000,-0.011000)"/>    <path d="M499 124H237L195 0H16L270 702H468L722 0H541ZM455 256 368 513 282 256Z" transform="translate(179.7,76.0) scale(0.011000,-0.011000)"/>    <path d="M42 210H224Q228 171 251.0 150.5Q274 130 311 130Q349 130 371.0 147.5Q393 165 393 196Q393 222 375.5 239.0Q358 256 332.5 267.0Q307 278 260 292Q192 313 149.0 334.0Q106 355 75.0 396.0Q44 437 44 503Q44 601 115.0 656.5Q186 712 300 712Q416 712 487.0 656.5Q558 601 563 502H378Q376 536 353.0 555.5Q330 575 294 575Q263 575 244.0 558.5Q225 542 225 511Q225 477 257.0 458.0Q289 439 357 417Q425 394 467.5 373.0Q510 352 541.0 312.0Q572 272 572 209Q572 149 541.5 100.0Q511 51 453.0 22.0Q395 -7 316 -7Q239 -7 178.0 18.0Q117 43 80.5 92.0Q44 141 42 210Z" transform="translate(187.8,76.0) scale(0.011000,-0.011000)"/>    <path d="M670 702V0H499V289H233V0H62V702H233V427H499V702Z" transform="translate(194.6,76.0) scale(0.011000,-0.011000)"/>    <path d="M622 191Q622 103 560.5 51.5Q499 0 389 0H62V702H378Q485 702 545.5 653.0Q606 604 606 520Q606 458 573.5 417.0Q541 376 487 360Q548 347 585.0 299.5Q622 252 622 191ZM233 418H345Q387 418 409.5 436.5Q432 455 432 491Q432 527 409.5 546.0Q387 565 345 565H233ZM449 214Q449 251 424.5 272.0Q400 293 357 293H233V138H359Q402 138 425.5 157.5Q449 177 449 214Z" transform="translate(202.6,76.0) scale(0.011000,-0.011000)"/>    <path d="M33 353Q33 456 81.5 538.0Q130 620 212.5 666.0Q295 712 394 712Q493 712 575.5 666.0Q658 620 705.5 538.0Q753 456 753 353Q753 250 705.0 167.5Q657 85 575.0 39.0Q493 -7 394 -7Q295 -7 212.5 39.0Q130 85 81.5 167.5Q33 250 33 353ZM579 353Q579 446 528.5 501.5Q478 557 394 557Q309 557 258.5 502.0Q208 447 208 353Q208 260 258.5 204.5Q309 149 394 149Q478 149 528.5 205.0Q579 261 579 353Z" transform="translate(209.8,76.0) scale(0.011000,-0.011000)"/>    <path d="M499 124H237L195 0H16L270 702H468L722 0H541ZM455 256 368 513 282 256Z" transform="translate(218.5,76.0) scale(0.011000,-0.011000)"/>    <path d="M420 0 274 265H233V0H62V702H349Q432 702 490.5 673.0Q549 644 578.0 593.5Q607 543 607 481Q607 411 567.5 356.0Q528 301 451 278L613 0ZM233 386H339Q386 386 409.5 409.0Q433 432 433 474Q433 514 409.5 537.0Q386 560 339 560H233Z" transform="translate(226.6,76.0) scale(0.011000,-0.011000)"/>    <path d="M693 351Q693 248 647.5 168.0Q602 88 518.5 44.0Q435 0 325 0H62V702H325Q436 702 519.0 658.0Q602 614 647.5 534.5Q693 455 693 351ZM519 351Q519 448 465.0 502.0Q411 556 314 556H233V148H314Q411 148 465.0 201.0Q519 254 519 351Z" transform="translate(233.8,76.0) scale(0.011000,-0.011000)"/>
  </g>
</svg>